<svg version="1.1" id="Layer_1" xmlns="http://www.w3.org/2000/svg" xmlns:xlink="http://www.w3.org/1999/xlink" x="0px"
  y="0px" width="100%" viewBox="0 0 579 574" enable-background="new 0 0 579 574" xml:space="preserve">
  <path fill="#165DFB" opacity="1.000000" stroke="none" d="
M242.026810,406.139893 
	C238.738190,408.541962 235.449554,410.944031 231.699951,413.811218 
	C229.837555,416.211639 228.436127,418.146973 227.034698,420.082306 
	C227.034698,420.082306 227.010956,420.012268 226.689209,419.872437 
	C223.049225,421.121857 219.829193,422.595490 220.078568,427.050629 
	C220.078568,427.050629 220.020981,427.019897 219.780670,426.712769 
	C219.023148,426.962860 218.505951,427.520111 217.988754,428.077362 
	C217.988754,428.077362 217.936111,427.984375 217.951019,428.131042 
	C217.791061,428.441681 217.623459,428.612793 217.463104,428.791046 
	C214.960159,431.010406 212.449295,433.220978 209.961060,435.456757 
	C209.471283,435.896851 209.144623,436.752716 208.614746,436.878754 
	C200.738876,438.751740 199.376480,448.328644 191.879868,450.906860 
	C189.786835,451.626678 188.514496,454.732727 186.195709,456.828735 
	C185.353607,457.305176 185.181458,457.696960 185.009293,458.088745 
	C185.009293,458.088745 185.009628,458.011047 184.697601,457.962891 
	C184.264847,458.305206 184.144119,458.695618 184.023376,459.086029 
	C184.023376,459.086029 184.012878,459.014740 183.691925,458.902008 
	C180.980469,461.268127 178.589981,463.746948 176.199493,466.225800 
	C176.199493,466.225800 176.048447,466.074158 175.788712,466.029358 
	C174.363846,467.350800 173.198730,468.717010 172.033600,470.083221 
	C172.033600,470.083221 172.011185,470.012573 171.698776,469.870300 
	C169.489594,471.159821 167.592834,472.591583 165.344528,474.024231 
	C159.735794,476.013123 154.556763,478.260712 149.187698,479.877106 
	C146.591385,480.658752 143.638153,480.254761 140.855087,480.361481 
	C140.863663,480.335388 140.897461,480.292023 140.786591,479.968719 
	C140.053452,479.541290 139.431183,479.437164 138.778152,479.316589 
	C138.747406,479.300110 138.763794,479.367920 138.699890,479.012695 
	C136.699890,477.810333 134.763794,476.963226 132.877213,476.098450 
	C132.926727,476.080719 132.928879,476.185883 132.841141,475.912384 
	C132.424423,475.468018 132.095459,475.297150 131.835754,475.120544 
	C131.905029,475.114807 131.870819,475.249542 131.802460,474.963928 
	C131.400375,474.507477 131.066650,474.336609 130.783905,474.130066 
	C130.834900,474.094421 130.864471,474.215302 130.796204,473.939941 
	C130.430283,473.441315 130.132645,473.218079 129.835022,472.994873 
	C129.835007,472.994873 129.968781,473.010345 129.846909,472.825592 
	C129.426498,472.454529 129.127960,472.268219 128.871674,472.131500 
	C128.913925,472.181122 128.803879,472.251007 128.847412,471.905029 
	C128.264557,471.040436 127.638176,470.521790 126.779617,469.807739 
	C126.092133,468.726715 125.636833,467.841095 125.331772,466.830933 
	C125.274139,466.456116 125.066277,466.205841 124.802841,465.847900 
	C124.747269,465.740173 124.925636,465.576050 124.950264,465.108765 
	C124.650139,460.045868 124.112602,455.453461 124.044662,450.854095 
	C123.900330,441.083893 124.000175,431.310089 124.000290,421.537781 
	C124.000359,415.740662 124.071182,409.941589 123.911858,404.148865 
	C123.892189,403.433746 122.647499,402.752380 121.590385,401.965240 
	C115.259064,399.836151 109.308800,397.794312 103.356140,395.759521 
	C100.838570,394.898956 98.315956,394.053162 95.795639,393.200653 
	C95.795639,393.200653 95.938805,393.085236 95.950348,392.795410 
	C94.282875,391.686035 92.603859,390.866516 90.924835,390.046967 
	C90.924835,390.046967 90.991547,390.015625 91.072540,389.679565 
	C88.593216,387.880707 86.032890,386.417938 83.472572,384.955200 
	C82.090485,383.646301 80.708397,382.337433 79.558395,380.488708 
	C78.117188,378.025787 76.443901,376.102722 74.770615,374.179657 
	C74.770615,374.179657 74.895027,374.087311 74.943329,373.786285 
	C73.318672,370.660522 71.645721,367.835785 69.890701,364.655945 
	C67.395866,358.172760 64.983109,352.044617 62.584869,345.525604 
	C62.122780,342.063782 61.646168,338.992859 61.435295,335.611938 
	C61.800392,334.316986 61.986572,333.332031 61.986717,332.347076 
	C61.996605,264.668762 61.996708,196.990448 61.952660,129.312164 
	C61.951740,127.898643 61.425663,126.485481 61.072208,124.671097 
	C61.619205,121.178123 62.238575,118.086205 62.857948,114.994278 
	C62.904182,114.273102 62.950417,113.551926 63.294197,112.289780 
	C66.009285,106.164162 68.426834,100.579514 70.844376,94.994858 
	C73.252525,87.032303 79.878258,82.523788 85.186913,76.801933 
	C90.896965,70.647438 98.220238,67.329689 105.793579,63.093479 
	C110.826729,62.207241 115.033257,61.081936 119.298889,60.265327 
	C123.856171,59.392883 128.469223,58.811756 133.349976,58.394211 
	C134.959473,58.789093 136.276901,58.984211 137.594345,58.984409 
	C241.444260,58.999817 345.294159,59.003620 449.144073,58.967068 
	C450.731628,58.966511 452.318970,58.453018 454.270844,58.105026 
	C457.497101,58.574623 460.364899,59.088921 463.219543,59.667896 
	C468.507629,60.740421 473.787994,61.850758 479.071594,62.945351 
	C479.071594,62.945354 479.005676,62.988285 478.916534,63.318954 
	C481.953735,65.029068 485.080078,66.408508 488.206421,67.787949 
	C488.206421,67.787949 488.074036,68.014465 488.050293,68.257034 
	C489.087585,68.932381 490.148621,69.365158 491.209686,69.797928 
	C491.209686,69.797928 491.103363,69.898720 491.111877,70.224319 
	C491.769562,70.680679 492.418762,70.811432 493.067963,70.942192 
	C493.067963,70.942192 493.001892,70.996376 492.871735,71.226074 
	C493.103851,71.614937 493.466156,71.774101 493.828430,71.933266 
	C496.500580,74.435127 499.172729,76.936989 502.093414,80.072479 
	C504.301666,82.405823 506.261383,84.105530 508.221100,85.805244 
	C508.221100,85.805252 508.094055,85.977966 508.052582,86.249641 
	C510.987976,91.688354 513.964844,96.855400 517.070435,102.373428 
	C519.080627,107.855377 520.962036,112.986336 522.843445,118.117279 
	C522.886292,120.486900 522.929199,122.856529 522.634277,125.938377 
	C522.196594,127.303268 522.009460,127.955925 522.009399,128.608597 
	C521.997986,193.055679 521.993774,257.502747 522.050232,321.949799 
	C522.051392,323.319672 522.762268,324.688995 523.100891,326.443298 
	C523.086121,327.858643 523.112549,328.889221 522.821289,330.189331 
	C522.013000,335.341583 521.522278,340.224304 521.034912,345.508087 
	C519.738953,350.277771 518.439697,354.646454 517.140503,359.015106 
	C517.096191,359.964966 517.051941,360.914856 516.782349,362.313904 
	C516.400818,362.993408 516.187622,363.075226 515.917358,363.008545 
	C515.917358,363.008545 516.001709,362.938995 515.687622,362.945770 
	C513.594666,366.328064 511.815765,369.703583 510.036865,373.079102 
	C510.036865,373.079102 510.012299,373.010193 509.701538,372.902466 
	C506.997986,375.519104 504.605164,378.243500 502.212372,380.967926 
	C495.661987,388.163666 487.932526,393.635712 478.009521,396.994263 
	C474.029541,398.005646 470.805542,399.028900 467.136047,400.044434 
	C465.478088,400.526642 464.265564,401.016571 462.824066,401.665527 
	C462.046356,401.841736 461.497620,401.858978 460.660645,401.592621 
	C454.927399,401.840546 449.482391,402.372040 443.634613,402.982605 
	C442.142761,403.008057 441.053741,402.954468 439.833252,402.675568 
	C439.146423,402.600220 438.591003,402.750214 437.571045,402.980743 
	C431.057800,403.004364 425.009094,402.947479 418.826904,402.669739 
	C418.141876,402.596924 417.590363,402.744934 416.574097,402.975769 
	C402.392609,403.003754 388.675842,402.948975 374.718140,402.625732 
	C372.666351,402.533203 370.855469,402.709137 368.579376,402.967133 
	C350.395081,402.995758 332.676025,402.942322 314.753174,402.635864 
	C313.380341,402.552399 312.211273,402.721924 310.577148,402.973450 
	C301.063934,403.002930 292.015778,402.950348 282.892395,402.729462 
	C282.555450,402.673706 282.293762,402.786194 281.567383,402.979370 
	C268.811188,403.056366 256.519623,403.052643 243.962585,403.153564 
	C243.475525,403.556763 243.253967,403.855347 242.921082,404.424011 
	C242.548782,405.176056 242.287796,405.657959 242.026810,406.139893 
M227.890244,372.811096 
	C227.890244,372.811096 227.785110,372.818634 228.472076,372.893250 
	C228.930084,372.482513 229.388077,372.071777 229.882065,371.791077 
	C229.882065,371.791077 229.752136,371.754822 230.438034,371.880066 
	C230.922897,371.490051 231.407776,371.100037 231.950714,370.822479 
	C231.950714,370.822479 231.826050,370.844086 232.787155,370.957977 
	C299.885315,370.973297 366.983490,371.019775 434.081573,370.960083 
	C441.532196,370.953430 449.037415,370.782257 456.413910,369.860199 
	C461.598938,369.212067 467.261902,368.619995 470.743317,363.809509 
	C470.743317,363.809509 470.670441,363.619293 471.193085,363.832001 
	C471.533661,363.730438 471.874237,363.628906 472.214813,363.527344 
	C472.069580,363.311615 471.924316,363.095856 472.171387,362.304657 
	C475.924042,358.660431 479.987183,355.279785 483.357239,351.310730 
	C488.531128,345.217255 490.032837,337.643402 491.326630,329.580505 
	C491.550690,327.816833 491.969391,326.053284 491.970520,324.289459 
	C492.005402,270.966339 491.999725,217.643173 491.998718,164.320007 
	C491.998505,153.488739 492.032379,142.657043 491.915680,131.826996 
	C491.905518,130.883118 490.883820,129.950150 490.076965,128.158951 
	C489.985443,126.010429 490.406708,123.680359 489.720612,121.742340 
	C484.615723,107.322716 471.613800,92.244377 452.742584,91.029915 
	C451.374451,90.689354 450.013062,90.091393 448.636932,90.055107 
	C443.973785,89.932167 439.305420,90.008034 434.639038,90.007973 
	C335.645233,90.006599 236.651459,89.996056 137.657730,90.073700 
	C135.793381,90.075165 133.929855,91.121353 131.514359,91.911140 
	C131.317627,91.879013 131.120880,91.846893 130.394699,91.312454 
	C128.614075,91.632072 126.833443,91.951698 124.981239,92.158401 
	C124.981239,92.158401 125.097374,92.092163 124.370979,92.034523 
	C123.591927,92.436287 122.812874,92.838058 121.991554,93.112328 
	C121.991554,93.112328 122.123024,93.084755 121.392197,93.050964 
	C120.607712,93.444794 119.823235,93.838631 119.009499,94.110710 
	C119.009499,94.110710 119.134552,94.104301 118.403534,94.042519 
	C117.631721,94.457397 116.859901,94.872276 116.054489,95.167580 
	C116.054489,95.167580 116.178009,95.180595 115.503700,95.101585 
	C115.047096,95.510757 114.590492,95.919930 113.980476,96.189926 
	C113.980476,96.189926 114.111740,96.029701 113.557854,96.331047 
	C113.393501,96.714180 113.229149,97.097321 112.666862,97.977493 
	C108.452164,101.998489 104.237473,106.019485 99.683586,109.708801 
	C99.510857,110.214027 99.338120,110.719254 99.097137,111.091850 
	C99.097137,111.091850 99.243080,111.061028 98.623055,111.305084 
	C98.443718,111.920998 98.264389,112.536903 98.063637,113.034775 
	C98.063637,113.034775 98.183601,113.035484 97.577927,113.301079 
	C97.417778,113.921387 97.257629,114.541702 97.090172,115.038269 
	C97.090172,115.038269 97.212440,115.058632 96.486832,115.265953 
	C94.993073,120.768822 92.225357,126.265785 92.199799,131.775467 
	C91.896454,197.171921 91.991203,262.570282 92.076271,327.968048 
	C92.078003,329.301392 93.215698,330.633270 94.043236,332.759979 
	C94.537445,335.353149 94.938057,337.968323 95.542442,340.535553 
	C97.886261,350.491486 103.915337,357.755981 112.589340,362.777100 
	C116.861588,365.250183 121.539902,367.021759 126.576675,369.661743 
	C134.225510,370.407227 141.874344,371.152710 149.958725,372.375000 
	C151.314148,374.879272 152.669556,377.383545 154.005997,380.839661 
	C154.003616,394.981171 153.905731,409.123932 154.096588,423.262848 
	C154.126999,425.515198 155.454178,427.750031 156.041946,429.961548 
	C156.041946,429.961548 156.089996,429.826447 156.087723,430.316010 
	C156.387405,430.552124 156.687073,430.788208 157.580597,431.370178 
	C159.099991,432.267456 160.619385,433.164703 162.268326,434.138458 
	C166.708893,430.068359 171.024353,426.274353 175.148590,422.282745 
	C178.586472,418.955444 181.640182,415.223938 185.145126,411.974670 
	C193.340759,404.376770 201.755585,397.015594 209.973480,389.441223 
	C212.754929,386.877594 215.106995,383.852142 217.844284,381.235443 
	C220.792511,378.417114 223.962418,375.830658 227.286285,373.441864 
	C227.465439,373.204346 227.644592,372.966827 227.890244,372.811096 
z" />
  <path fill="#165DFB" opacity="1.000000" stroke="none" d="
M344.037933,317.899719 
	C329.320129,317.949524 314.602356,317.999329 299.215302,317.716797 
	C297.377411,317.553436 296.208771,317.722382 295.040131,317.891296 
	C267.992584,317.949249 240.945053,318.007202 213.358215,317.816681 
	C212.556534,317.677185 212.294144,317.786194 212.031738,317.895172 
	C195.649368,317.948151 179.267014,318.001099 162.247375,317.731018 
	C160.757050,317.558472 159.903992,317.709015 159.050949,317.859558 
	C150.700150,318.796173 141.235336,309.235229 140.945587,301.726135 
	C140.458923,289.112976 140.479431,276.478241 140.407074,263.851868 
	C140.363617,256.266968 145.677841,251.351715 149.896469,246.007187 
	C152.459152,242.760559 155.706436,240.064163 158.430618,236.933060 
	C163.889709,230.658508 169.274170,224.315399 174.549805,217.886032 
	C178.708038,212.818451 182.521606,207.465424 186.736130,202.447372 
	C191.169144,197.169159 195.907547,192.147949 200.491425,186.995697 
	C202.968872,184.211029 205.402298,181.387222 208.198090,178.123779 
	C208.747467,177.413177 208.876129,177.124969 208.926620,176.801834 
	C208.926620,176.801834 208.927551,176.954910 209.133759,176.852829 
	C209.522964,176.417252 209.705963,176.083771 209.888962,175.750275 
	C209.888962,175.750275 209.907471,175.914474 210.113495,175.825745 
	C210.499100,175.401489 210.678680,175.065964 210.858276,174.730438 
	C210.858276,174.730453 210.729568,174.860672 211.047455,174.852081 
	C211.881348,174.172485 212.397354,173.501511 212.913361,172.830536 
	C212.913361,172.830536 212.941833,172.914841 213.335358,172.946259 
	C218.908051,172.862289 224.087219,172.746933 229.266388,172.631577 
	C229.266388,172.631577 229.056519,172.927811 229.201477,173.115051 
	C229.972595,173.477997 230.598785,173.653732 231.224960,173.829468 
	C231.224960,173.829468 231.111603,173.896271 231.181671,174.116577 
	C231.586609,174.517273 231.921478,174.697647 232.256348,174.878036 
	C232.256348,174.878036 232.097137,174.903641 232.179504,175.113007 
	C232.596481,175.506836 232.931091,175.691299 233.265701,175.875763 
	C233.265701,175.875778 233.105072,175.910843 233.183228,176.117035 
	C233.593582,176.511139 233.925766,176.699036 234.257950,176.886932 
	C234.257950,176.886932 234.114746,176.827667 234.115372,177.145294 
	C235.166412,178.246277 236.216843,179.029633 237.267258,179.812988 
	C237.267258,179.812988 237.148224,179.907135 237.201508,180.120819 
	C237.583572,180.523682 237.912338,180.712875 238.241089,180.902069 
	C238.241089,180.902069 238.087952,180.926010 238.154053,181.124725 
	C238.498856,181.556549 238.777588,181.789627 239.056305,182.022705 
	C244.378479,187.461319 249.683731,192.916626 255.030090,198.331360 
	C257.620361,200.954712 257.478943,203.017761 254.872711,205.903351 
	C249.157440,212.231232 243.987946,219.049301 238.513184,225.598312 
	C235.465881,229.243561 232.253082,232.750473 229.114868,236.319733 
	C229.773956,236.924149 230.433044,237.528564 231.092148,238.132980 
	C233.534622,235.684814 236.012634,233.270905 238.412292,230.781464 
	C243.611923,225.387299 248.868973,220.043488 253.918243,214.510880 
	C258.410309,209.588776 262.600677,204.392548 267.031799,199.413071 
	C268.987427,197.215408 271.335022,195.366058 273.285736,193.164597 
	C278.370239,187.426559 283.272552,181.526657 288.376556,175.806488 
	C290.336456,173.609955 292.809692,171.870804 294.764740,169.670654 
	C299.748138,164.062500 304.510406,158.257660 309.504181,152.659058 
	C310.667603,151.354721 312.400177,150.558014 314.488281,149.256958 
	C319.479401,148.345306 323.859436,147.184433 328.224609,147.237930 
	C331.377319,147.276596 334.510254,148.929581 337.652008,149.862595 
	C344.751343,157.479599 352.005280,164.959900 358.901459,172.756577 
	C364.483002,179.066910 369.528778,185.848297 375.016479,192.245468 
	C378.174103,195.926407 381.880341,199.134033 385.079590,202.782700 
	C388.386566,206.554184 391.337616,210.635452 394.521515,214.517914 
	C397.091034,217.651245 399.692383,220.766312 402.425903,223.755661 
	C408.232880,230.105896 414.166443,236.340347 419.984222,242.680832 
	C422.627991,245.562134 425.189270,248.526031 427.663391,251.554230 
	C430.840332,255.442642 434.107727,259.286316 436.930389,263.425934 
	C439.258392,266.840088 440.995941,270.656830 442.647644,274.977905 
	C442.221527,284.795868 442.142944,293.931091 442.064331,303.066345 
	C442.064331,303.066345 442.162964,302.964203 441.885254,303.165710 
	C441.437286,304.294281 441.267059,305.221313 441.096802,306.148376 
	C441.096802,306.148376 441.082001,306.022217 440.843719,306.160217 
	C440.422485,306.908966 440.239563,307.519714 440.056580,308.130463 
	C440.056580,308.130463 440.039398,308.030273 439.821869,308.122162 
	C439.421844,308.534393 439.239319,308.854736 439.056793,309.175079 
	C439.056793,309.175079 439.144135,309.036407 439.007690,309.094116 
	C438.751099,309.197906 438.630890,309.243988 438.510742,309.290039 
	C438.613953,309.504211 438.717194,309.718384 438.820404,309.932556 
	C438.258270,310.615479 437.696167,311.298370 436.521240,312.119202 
	C435.630646,312.631073 435.352905,313.005035 435.075134,313.378998 
	C435.070984,313.699585 434.918518,313.915375 434.070953,314.053162 
	C433.027863,314.454498 432.531525,314.828949 432.035217,315.203430 
	C432.035217,315.203461 432.030029,315.077179 431.672180,315.057312 
	C428.554321,315.970062 425.794250,316.902710 423.034210,317.835388 
	C399.317261,317.908997 375.600311,317.982574 351.161194,317.704376 
	C348.305298,317.534943 346.171631,317.717316 344.037933,317.899719 
z" />
</svg>

